#!OML:ASF F:\VICON\USERDATA\INSTALL\rory3\rory3.ASF
:FULLY-SPECIFIED
:DEGREES
617
root -19.6382 17.353 9.33096 -184.425 -0.519877 177.248
lowerback 11.9288 0.880497 -0.87498
upperback 0.516339 1.02712 1.16643
thorax -6.19189 0.502732 1.55007
lowerneck -20.8377 -2.52812 -10.6903
upperneck 32.6031 -4.06528 6.60077
head 15.2551 -2.82045 3.67897
rclavicle 6.48535e-015 7.95139e-015
rhumerus -31.8136 -15.0339 -70.0775
rradius 28.8951
rwrist 11.2191
rhand -13.9506 8.72734
rfingers 7.12502
rthumb 12.1767 -20.8983
lclavicle 6.48535e-015 7.95139e-015
lhumerus -35.5611 4.33173 82.7
lradius 35.0085
lwrist -5.74668
lhand -20.6093 26.7601
lfingers 7.12502
lthumb 5.75154 56.6621
rfemur 0.248402 4.50398 1.90643
rtibia 25.3281
rfoot -13.419 -7.14716
rtoes -19.6525
lfemur 6.59438 -3.86246 -7.14844
ltibia 12.9934
lfoot -4.07256 2.02031
ltoes -32.0124
618
root -19.7905 17.3347 9.33249 -184.474 -0.315677 176.916
lowerback 12.0891 0.989401 -1.11976
upperback 0.422513 1.13674 1.04915
thorax -6.3876 0.566241 1.54373
lowerneck -20.8647 -2.54111 -10.6024
upperneck 32.6937 -4.17325 6.68729
head 15.3161 -2.85139 3.68127
rclavicle 2.50966e-015 7.95139e-016
rhumerus -31.9008 -15.4777 -69.8421
rradius 29.0004
rwrist 11.2314
rhand -13.8937 8.28116
rfingers 7.12502
rthumb 12.2316 -21.3412
lclavicle 2.50966e-015 7.95139e-016
lhumerus -35.4111 4.71756 82.3776
lradius 34.3509
lwrist -6.78475
lhand -19.5415 24.4176
lfingers 7.12502
lthumb 6.78242 54.289
rfemur 0.256679 4.86182 0.980382
rtibia 25.1879
rfoot -12.9237 -7.02378
rtoes -20.5123
lfemur 6.82738 -3.26598 -8.06238
ltibia 12.8734
lfoot -4.39067 2.67721
ltoes -31.2118
619
root -19.9352 17.3288 9.33781 -184.317 -0.19459 176.775
lowerback 12.0223 1.03383 -1.28924
upperback 0.32739 1.17962 1.03774
thorax -6.45596 0.596346 1.61997
lowerneck -20.7501 -2.5813 -10.5689
upperneck 32.5504 -4.24893 6.71092
head 15.2315 -2.86967 3.66767
rclavicle -3.23025e-016 -1.51076e-014
rhumerus -31.9114 -16.0547 -69.5696
rradius 29.1043
rwrist 11.2614
rhand -14.0481 8.11454
rfingers 7.12502
rthumb 12.0827 -21.5166
lclavicle -3.23025e-016 -1.51076e-014
lhumerus -35.1855 5.1071 82.1884
lradius 33.7857
lwrist -7.47514
lhand -18.883 22.5601
lfingers 7.12502
lthumb 7.41811 52.4101
rfemur 0.0569993 5.34842 0.346912
rtibia 25.0788
rfoot -12.4129 -7.15198
rtoes -20.5246
lfemur 6.78339 -2.48411 -8.73234
ltibia 12.7242
lfoot -5.36392 3.14638
ltoes -28.6802
620
root -20.0767 17.3303 9.33989 -184.163 -0.170418 176.55
lowerback 11.8249 1.04634 -1.5548
upperback 0.340131 1.16268 1.00422
thorax -6.33574 0.595907 1.73973
lowerneck -20.7119 -2.64448 -10.4826
upperneck 32.281 -4.28718 6.62784
head 15.0979 -2.86369 3.60534
rclavicle -1.23992e-014 -1.59028e-014
rhumerus -31.7981 -16.5717 -69.4333
rradius 29.28
rwrist 11.108
rhand -14.3569 8.32887
rfingers 7.12502
rthumb 11.7849 -21.3196
lclavicle -1.23992e-014 -1.59028e-014
lhumerus -34.8228 5.31996 82.1304
lradius 33.342
lwrist -7.69312
lhand -18.8446 22.9849
lfingers 7.12502
lthumb 7.45518 52.8335
rfemur -0.134492 5.79265 -0.347668
rtibia 25.0033
rfoot -11.8283 -7.3634
rtoes -20.1744
lfemur 6.72198 -1.88336 -9.54605
ltibia 12.6098
lfoot -6.32556 3.49016
ltoes -27.0109
621
root -20.2201 17.3268 9.34135 -184.145 -0.225912 176.055
lowerback 11.7637 1.02766 -2.05718
upperback 0.409673 1.06225 0.888076
thorax -6.23094 0.557783 1.91953
lowerneck -20.9381 -2.67091 -10.4333
upperneck 32.1788 -4.27444 6.64011
head 15.1 -2.82982 3.60435
rclavicle 2.48481e-017 -8.74653e-015
rhumerus -31.6132 -16.9937 -69.3836
rradius 29.4479
rwrist 10.9877
rhand -14.4863 8.41173
rfingers 7.12502
rthumb 11.6602 -21.2438
lclavicle 2.48481e-017 -8.74653e-015
lhumerus -34.4886 5.55247 82.0299
lradius 32.8975
lwrist -7.79884
lhand -19.4924 24.693
lfingers 7.12502
lthumb 6.82986 54.5629
rfemur -0.186227 5.9608 -1.37589
rtibia 24.9958
rfoot -11.1 -7.47287
rtoes -19.7756
lfemur 6.85663 -1.66273 -10.7378
ltibia 12.4268
lfoot -6.88383 4.188
ltoes -25.4052
622
root -20.3633 17.3227 9.35361 -184.172 -0.266647 175.735
lowerback 11.9363 1.00094 -2.36001
upperback 0.401207 0.977072 0.828797
thorax -6.33712 0.524916 2.0414
lowerneck -21.17 -2.6711 -10.4295
upperneck 32.2416 -4.24939 6.66237
head 15.1797 -2.80996 3.62036
rclavicle -6.70898e-015 2.3059e-014
rhumerus -31.4952 -17.429 -69.284
rradius 29.5271
rwrist 10.7873
rhand -14.7008 8.53069
rfingers 7.12502
rthumb 11.4533 -21.1365
lclavicle -6.70898e-015 2.3059e-014
lhumerus -34.1939 6.20428 81.7916
lradius 32.2512
lwrist -8.32573
lhand -20.9638 27.816
lfingers 7.12502
lthumb 5.40928 57.7269
rfemur -0.32138 6.0004 -2.20795
rtibia 25.1556
rfoot -10.3957 -7.57947
rtoes -18.8624
lfemur 7.12826 -1.71725 -11.7471
ltibia 12.0078
lfoot -7.05105 4.92983
ltoes -23.5787
